<svg xmlns="http://www.w3.org/2000/svg" width="24" height="24" viewBox="0 0 24 24" fill="none" stroke="currentColor" stroke-width="2" stroke-linecap="round" stroke-linejoin="round">
  <path d="M14.828 14.828a4 4 0 0 1-5.656 0M9 9a2.5 2.5 0 0 1 5 0c0 .75-.63 1.5-2.5 2-1.87.5-2.5 1.25-2.5 2a2.5 2.5 0 0 1 5 0" />
  <path d="M12 2c1.2 0 2 .5 3 1.5S17 5.8 17 7s-.5 2-1.5 3-1.8 1.5-3 1.5h-.5c-.6 0-1.2.2-1.6.6-.4.4-.6 1-.6 1.6 0 1.2.5 2 1.5 3s1.8 1.5 3 1.5 2-.5 3-1.5S19 14.2 19 13s-.5-2-1.5-3-1.8-1.5-3-1.5" />
  <circle cx="12" cy="12" r="10" />
</svg>
